<!DOCTYPE svg PUBLIC "-//W3C//DTD SVG 1.1//EN" "http://www.w3.org/Graphics/SVG/1.1/DTD/svg11.dtd">
<!-- Uploaded to: SVG Repo, www.svgrepo.com, Transformed by: SVG Repo Mixer Tools -->
<svg fill="#38BDF8" width="800px" height="800px" viewBox="-76.8 -76.8 409.60 409.60" id="Flat" xmlns="http://www.w3.org/2000/svg" stroke="#38BDF8">
<g id="SVGRepo_bgCarrier" stroke-width="0">
<rect x="-76.8" y="-76.8" width="409.60" height="409.60" rx="40.96" fill="#1E3846" strokewidth="0"/>
</g>
<g id="SVGRepo_tracerCarrier" stroke-linecap="round" stroke-linejoin="round"/>
<g id="SVGRepo_iconCarrier"> <path d="M63.99805,140.002a7.99955,7.99955,0,0,1-8,8h-.00049l-44.00147-.0039a8,8,0,0,1-6.3955-12.80469A67.81463,67.81463,0,0,1,33.02783,113.5127,39.99241,39.99241,0,1,1,99.29492,76.50293a7.99971,7.99971,0,0,1-3.78515,8.37695,64.36027,64.36027,0,0,0-27.85889,33.7959A63.645,63.645,0,0,0,63.99805,140.002Zm186.39941-4.81054a67.81009,67.81009,0,0,0-27.42676-21.68067A39.99246,39.99246,0,1,0,156.70361,76.5a8.00092,8.00092,0,0,0,3.78467,8.37695,64.367,64.367,0,0,1,27.85938,33.79688A63.64448,63.64448,0,0,1,192,140a8.00039,8.00039,0,0,0,8.001,8l44.001-.00391a8,8,0,0,0,6.39551-12.80468ZM157.16162,178.0896a48,48,0,1,0-58.32324,0,71.66776,71.66776,0,0,0-35.59522,34.40454A7.9997,7.9997,0,0,0,70.43457,223.999H185.56543a8.00017,8.00017,0,0,0,7.19141-11.50488A71.66776,71.66776,0,0,0,157.16162,178.0896Z"/> </g>
</svg>