<svg id="Layer_1" data-name="Layer 1" xmlns="http://www.w3.org/2000/svg" xmlns:xlink="http://www.w3.org/1999/xlink" viewBox="0 0 1920 1080"><defs><style>.cls-1{fill:none;}.cls-2{clip-path:url(#clip-path);}.cls-3{fill:url(#radial-gradient);}.cls-4{clip-path:url(#clip-path-2);}.cls-5{clip-path:url(#clip-path-3);}.cls-6{fill:url(#radial-gradient-3);}.cls-7{clip-path:url(#clip-path-4);}.cls-8{clip-path:url(#clip-path-5);}.cls-9{clip-path:url(#clip-path-6);}.cls-10{clip-path:url(#clip-path-7);}.cls-11{clip-path:url(#clip-path-8);}.cls-12{clip-path:url(#clip-path-9);}.cls-13{clip-path:url(#clip-path-10);}.cls-14{clip-path:url(#clip-path-11);}.cls-15{clip-path:url(#clip-path-12);}.cls-16{clip-path:url(#clip-path-13);}.cls-17{clip-path:url(#clip-path-14);}.cls-18{clip-path:url(#clip-path-15);}.cls-19{clip-path:url(#clip-path-16);}.cls-20{clip-path:url(#clip-path-17);}.cls-21{clip-path:url(#clip-path-18);}.cls-22{clip-path:url(#clip-path-19);}.cls-23{fill:url(#radial-gradient-19);}.cls-24{clip-path:url(#clip-path-20);}.cls-25{clip-path:url(#clip-path-21);}.cls-26{clip-path:url(#clip-path-22);}.cls-27{clip-path:url(#clip-path-23);}.cls-28{clip-path:url(#clip-path-24);}.cls-29{clip-path:url(#clip-path-25);}.cls-30{clip-path:url(#clip-path-26);}.cls-31{clip-path:url(#clip-path-27);}.cls-32{clip-path:url(#clip-path-28);}.cls-33{clip-path:url(#clip-path-29);}.cls-34{clip-path:url(#clip-path-30);}.cls-35{clip-path:url(#clip-path-31);}.cls-36{clip-path:url(#clip-path-32);}.cls-37{clip-path:url(#clip-path-33);}.cls-38{clip-path:url(#clip-path-34);}.cls-39{clip-path:url(#clip-path-35);}.cls-40{clip-path:url(#clip-path-36);}.cls-41{clip-path:url(#clip-path-37);}.cls-42{clip-path:url(#clip-path-38);}.cls-43{clip-path:url(#clip-path-39);}.cls-44{clip-path:url(#clip-path-40);}.cls-45{fill:#c1272d;}.cls-46{clip-path:url(#clip-path-41);}.cls-47{fill:url(#radial-gradient-41);}.cls-48{fill:#fff;}.cls-49{clip-path:url(#clip-path-42);}.cls-50{fill:url(#radial-gradient-42);}.cls-51{clip-path:url(#clip-path-43);}.cls-52{fill:url(#radial-gradient-43);}.cls-53{clip-path:url(#clip-path-44);}.cls-54{fill:url(#radial-gradient-44);}.cls-55{clip-path:url(#clip-path-45);}.cls-56{fill:url(#radial-gradient-45);}.cls-57{clip-path:url(#clip-path-46);}.cls-58{fill:url(#radial-gradient-46);}.cls-59{clip-path:url(#clip-path-47);}.cls-60{fill:url(#radial-gradient-47);}.cls-61{clip-path:url(#clip-path-48);}.cls-62{fill:url(#radial-gradient-48);}.cls-63{clip-path:url(#clip-path-49);}.cls-64{fill:url(#radial-gradient-49);}.cls-65{clip-path:url(#clip-path-50);}.cls-66{fill:url(#radial-gradient-50);}.cls-67{clip-path:url(#clip-path-51);}.cls-68{fill:url(#radial-gradient-51);}.cls-69{clip-path:url(#clip-path-52);}.cls-70{fill:url(#radial-gradient-52);}.cls-71{clip-path:url(#clip-path-53);}.cls-72{fill:url(#radial-gradient-53);}.cls-73{clip-path:url(#clip-path-54);}.cls-74{fill:url(#radial-gradient-54);}.cls-75{clip-path:url(#clip-path-55);}.cls-76{fill:url(#radial-gradient-55);}.cls-77{clip-path:url(#clip-path-56);}.cls-78{fill:url(#radial-gradient-56);}.cls-79{clip-path:url(#clip-path-57);}.cls-80{fill:url(#radial-gradient-57);}.cls-81{clip-path:url(#clip-path-58);}.cls-82{fill:url(#radial-gradient-58);}.cls-83{clip-path:url(#clip-path-59);}.cls-84{fill:url(#radial-gradient-59);}.cls-85{clip-path:url(#clip-path-60);}.cls-86{fill:url(#radial-gradient-60);}.cls-87{clip-path:url(#clip-path-61);}.cls-88{fill:url(#radial-gradient-61);}.cls-89{clip-path:url(#clip-path-62);}.cls-90{fill:url(#radial-gradient-62);}</style><clipPath id="clip-path"><path class="cls-1" d="M653.72,465.31c12.18-3.09,25.5-6,39.83-8.68C728.89,343.2,834,260.93,958.23,260.93c124,0,228.91,81.95,264.47,195,15.76,2.88,30.33,6,43.55,9.38C1232.93,326,1108.46,222.48,960,222.48S687.05,326,653.72,465.31"/></clipPath><radialGradient id="radial-gradient" cx="0.78" cy="1081.04" r="1.44" gradientTransform="matrix(445.78, 0, 0, -445.78, 297.71, 482391.05)" gradientUnits="userSpaceOnUse"><stop offset="0" stop-color="#ffa80d"/><stop offset="1" stop-color="#ff682b"/></radialGradient><clipPath id="clip-path-2"><path class="cls-1" d="M958.23,820c-123.17,0-227.58-80.92-263.78-192.88-12.56,2.34-24.35,4.85-35.28,7.5a316.6,316.6,0,0,0,28.23,64.62l.36.63C742.4,794.17,843.84,857.52,960,857.52s217.59-63.35,272.23-157.62a316.94,316.94,0,0,0,28.58-65.22c-10.13-2.46-21-4.79-32.53-7-.22-.05-.42-.08-.63-.11l-5.43-1c-36,112.27-140.58,193.47-264,193.47"/></clipPath><clipPath id="clip-path-3"><path class="cls-1" d="M716.52,425.5c-2.55,5.49-4.95,11.14-7.11,16.79a1.79,1.79,0,0,0,1,2.33,1.8,1.8,0,0,0,2.33-1c2.14-5.56,4.51-11.14,7-16.56a1.8,1.8,0,0,0-.88-2.4,1.75,1.75,0,0,0-.76-.17,1.8,1.8,0,0,0-1.64,1.05"/></clipPath><radialGradient id="radial-gradient-3" cx="0.78" cy="1080.91" r="1.44" gradientTransform="matrix(-356.42, 0, 0, 356.42, 1496.27, -384817.87)" xlink:href="#radial-gradient"/><clipPath id="clip-path-4"><path class="cls-1" d="M1067.67,294a1.81,1.81,0,0,0,.9,2.39c5.43,2.47,10.85,5.15,16.11,8a1.88,1.88,0,0,0,.86.21,1.81,1.81,0,0,0,.86-3.4c-5.33-2.87-10.83-5.6-16.34-8.09a1.63,1.63,0,0,0-.74-.17,1.81,1.81,0,0,0-1.65,1.07"/></clipPath><clipPath id="clip-path-5"><path class="cls-1" d="M1099.64,310.94a1.81,1.81,0,0,0,.56,2.5c5,3.18,10,6.57,14.87,10.09a1.8,1.8,0,0,0,2.53-.4,1.8,1.8,0,0,0-.39-2.52c-4.89-3.57-10-7-15.08-10.23a1.78,1.78,0,0,0-1-.28,1.81,1.81,0,0,0-1.53.84"/></clipPath><clipPath id="clip-path-6"><path class="cls-1" d="M1033.67,281.57a1.81,1.81,0,0,0,1.22,2.25c5.72,1.7,11.46,3.62,17.06,5.71a2,2,0,0,0,.63.11,1.81,1.81,0,0,0,.63-3.5c-5.67-2.12-11.49-4.07-17.29-5.79a1.79,1.79,0,0,0-2.25,1.22"/></clipPath><clipPath id="clip-path-7"><path class="cls-1" d="M998.34,273.93a1.81,1.81,0,0,0,1.51,2.06c5.9.9,11.84,2,17.65,3.31a1.9,1.9,0,0,0,.4.05,1.81,1.81,0,0,0,.39-3.58c-5.89-1.32-11.91-2.44-17.89-3.36l-.28,0a1.81,1.81,0,0,0-1.78,1.54"/></clipPath><clipPath id="clip-path-8"><path class="cls-1" d="M1129,332.05a1.82,1.82,0,0,0,.22,2.55c4.58,3.83,9.07,7.87,13.38,12a1.79,1.79,0,0,0,1.25.51,1.81,1.81,0,0,0,1.26-3.12c-4.37-4.19-8.93-8.28-13.56-12.16a1.82,1.82,0,0,0-2.55.22"/></clipPath><clipPath id="clip-path-9"><path class="cls-1" d="M1196.64,416a1.82,1.82,0,0,0-.79,2.44c2.7,5.3,5.25,10.77,7.59,16.26a1.81,1.81,0,0,0,3.33-1.43c-2.37-5.55-5-11.1-7.69-16.47a1.81,1.81,0,0,0-1.62-1,1.89,1.89,0,0,0-.82.19"/></clipPath><clipPath id="clip-path-10"><path class="cls-1" d="M1155.26,356.91a1.81,1.81,0,0,0-.12,2.56c4,4.41,7.93,9,11.64,13.67a1.79,1.79,0,0,0,1.42.69,1.77,1.77,0,0,0,1.12-.4,1.81,1.81,0,0,0,.29-2.54c-3.76-4.72-7.73-9.39-11.8-13.86a1.81,1.81,0,0,0-2.55-.12"/></clipPath><clipPath id="clip-path-11"><path class="cls-1" d="M1177.94,385.05a1.81,1.81,0,0,0-.46,2.52c3.39,4.9,6.65,10,9.7,15.1a1.81,1.81,0,1,0,3.11-1.85c-3.09-5.19-6.4-10.34-9.83-15.31a1.82,1.82,0,0,0-1.5-.78,1.76,1.76,0,0,0-1,.32"/></clipPath><clipPath id="clip-path-12"><path class="cls-1" d="M874.59,283.31c-5.72,1.93-11.44,4.08-17,6.4a1.81,1.81,0,0,0,.7,3.48,1.7,1.7,0,0,0,.69-.14c5.5-2.28,11.15-4.41,16.79-6.31a1.81,1.81,0,0,0-.58-3.53,1.69,1.69,0,0,0-.58.1"/></clipPath><clipPath id="clip-path-13"><path class="cls-1" d="M809.65,315.67c-5,3.4-9.93,7-14.69,10.75a1.81,1.81,0,0,0-.3,2.54,1.78,1.78,0,0,0,1.42.69,1.81,1.81,0,0,0,1.12-.38c4.69-3.69,9.56-7.26,14.49-10.61a1.81,1.81,0,0,0-1-3.31,1.76,1.76,0,0,0-1,.32"/></clipPath><clipPath id="clip-path-14"><path class="cls-1" d="M841,297.26c-5.39,2.69-10.78,5.61-16,8.67a1.81,1.81,0,1,0,1.83,3.12c5.14-3,10.45-5.89,15.78-8.55a1.81,1.81,0,0,0-1.62-3.24"/></clipPath><clipPath id="clip-path-15"><path class="cls-1" d="M781,338.14c-4.49,4.05-8.9,8.3-13.11,12.64a1.81,1.81,0,0,0,1.3,3.07,1.84,1.84,0,0,0,1.3-.55c4.15-4.28,8.5-8.48,12.93-12.47a1.81,1.81,0,0,0-1.21-3.15,1.81,1.81,0,0,0-1.21.46"/></clipPath><clipPath id="clip-path-16"><path class="cls-1" d="M755.68,364.27c-3.91,4.61-7.72,9.41-11.31,14.28a1.82,1.82,0,0,0,.38,2.53,1.82,1.82,0,0,0,2.53-.38c3.55-4.8,7.3-9.54,11.16-14.09a1.81,1.81,0,1,0-2.76-2.34"/></clipPath><clipPath id="clip-path-17"><path class="cls-1" d="M945.93,269.72c-6,.31-12.15.84-18.14,1.56a1.81,1.81,0,0,0,.21,3.6h.22c5.91-.71,11.93-1.23,17.89-1.53a1.83,1.83,0,0,0,1.72-1.91,1.81,1.81,0,0,0-1.82-1.71h-.08"/></clipPath><clipPath id="clip-path-18"><path class="cls-1" d="M962.3,271.17a1.8,1.8,0,0,0,1.78,1.84c6,.09,12,.39,17.94.88h.15a1.81,1.81,0,0,0,.15-3.61c-6-.5-12.13-.8-18.18-.9h-.06a1.81,1.81,0,0,0-1.78,1.78"/></clipPath><clipPath id="clip-path-19"><path class="cls-1" d="M909.79,274.07c-5.94,1.13-11.91,2.48-17.75,4a1.81,1.81,0,1,0,.91,3.5c5.77-1.51,11.66-2.84,17.52-4a1.81,1.81,0,0,0-.34-3.58l-.34,0"/></clipPath><radialGradient id="radial-gradient-19" cx="0.78" cy="1080.91" r="1.44" gradientTransform="matrix(-356.42, 0, 0, 356.42, 1496.27, -384817.87)" xlink:href="#radial-gradient"/><clipPath id="clip-path-20"><path class="cls-1" d="M734,393.56c-3.26,5.1-6.39,10.37-9.3,15.67a1.81,1.81,0,0,0,.72,2.46,1.79,1.79,0,0,0,.87.22,1.81,1.81,0,0,0,1.59-.94c2.86-5.22,6-10.43,9.17-15.46a1.81,1.81,0,0,0-.55-2.5,1.74,1.74,0,0,0-1-.29,1.82,1.82,0,0,0-1.53.84"/></clipPath><clipPath id="clip-path-21"><path class="cls-1" d="M1211,449.09a1.86,1.86,0,0,0-.86.64l3.18.51,0,0a1.8,1.8,0,0,0-2.3-1.12"/></clipPath><clipPath id="clip-path-22"><path class="cls-1" d="M1085,775.47c-5.25,2.83-10.65,5.52-16.07,8a1.81,1.81,0,0,0,1.5,3.29c5.49-2.5,11-5.22,16.29-8.1a1.81,1.81,0,0,0-.86-3.4,1.78,1.78,0,0,0-.86.22"/></clipPath><clipPath id="clip-path-23"><path class="cls-1" d="M1052.33,790.33c-5.59,2.1-11.31,4-17,5.73a1.81,1.81,0,0,0,.51,3.54,1.86,1.86,0,0,0,.52-.07c5.79-1.73,11.6-3.69,17.26-5.81a1.81,1.81,0,0,0-.64-3.5,1.74,1.74,0,0,0-.63.11"/></clipPath><clipPath id="clip-path-24"><path class="cls-1" d="M982.45,806.07c-5.93.5-12,.81-17.94.91a1.81,1.81,0,0,0,0,3.62h0c6.06-.1,12.18-.41,18.19-.92a1.81,1.81,0,0,0-.16-3.62h-.15"/></clipPath><clipPath id="clip-path-25"><path class="cls-1" d="M1017.93,800.6c-5.81,1.31-11.75,2.43-17.65,3.34a1.81,1.81,0,0,0,.28,3.6l.27,0c6-.92,12-2.06,17.9-3.39a1.81,1.81,0,0,0-.8-3.53"/></clipPath><clipPath id="clip-path-26"><path class="cls-1" d="M926.64,806.76a1.8,1.8,0,0,0,1.59,2c6,.71,12.09,1.23,18.14,1.53h.09a1.81,1.81,0,0,0,.09-3.61c-6-.3-12-.81-17.9-1.51h-.21a1.81,1.81,0,0,0-1.8,1.59"/></clipPath><clipPath id="clip-path-27"><path class="cls-1" d="M1187.36,677c-3,5.12-6.31,10.21-9.71,15.14a1.81,1.81,0,0,0,.47,2.51,1.76,1.76,0,0,0,1,.32,1.82,1.82,0,0,0,1.5-.78c3.43-5,6.74-10.15,9.83-15.34a1.82,1.82,0,0,0-.63-2.48,1.84,1.84,0,0,0-.93-.26,1.8,1.8,0,0,0-1.55.89"/></clipPath><clipPath id="clip-path-28"><path class="cls-1" d="M1167,706.62c-3.7,4.67-7.62,9.28-11.63,13.7a1.81,1.81,0,0,0,1.34,3,1.78,1.78,0,0,0,1.33-.59c4.07-4.48,8-9.15,11.8-13.89a1.81,1.81,0,0,0-.29-2.54,1.87,1.87,0,0,0-1.13-.39,1.81,1.81,0,0,0-1.42.68"/></clipPath><clipPath id="clip-path-29"><path class="cls-1" d="M1115.31,756.3c-4.82,3.52-9.81,6.92-14.85,10.1a1.81,1.81,0,0,0,1,3.34,1.78,1.78,0,0,0,1-.28c5.11-3.23,10.17-6.67,15-10.24a1.81,1.81,0,0,0-1.07-3.27,1.75,1.75,0,0,0-1.06.35"/></clipPath><clipPath id="clip-path-30"><path class="cls-1" d="M1142.8,733.21c-4.3,4.13-8.79,8.17-13.36,12a1.81,1.81,0,0,0,2.33,2.77c4.62-3.89,9.18-8,13.54-12.18a1.81,1.81,0,1,0-2.51-2.6"/></clipPath><clipPath id="clip-path-31"><path class="cls-1" d="M725.63,668.63a1.8,1.8,0,0,0-.71,2.46c2.91,5.29,6,10.55,9.3,15.63a1.8,1.8,0,0,0,1.52.84,1.83,1.83,0,0,0,1-.29,1.8,1.8,0,0,0,.54-2.5c-3.21-5-6.3-10.21-9.17-15.43a1.8,1.8,0,0,0-2.46-.71"/></clipPath><clipPath id="clip-path-32"><path class="cls-1" d="M744.93,699.17a1.82,1.82,0,0,0-.38,2.53c3.59,4.85,7.4,9.65,11.32,14.26a1.82,1.82,0,0,0,1.38.64,1.86,1.86,0,0,0,1.17-.43,1.83,1.83,0,0,0,.21-2.56c-3.87-4.54-7.63-9.28-11.17-14.06a1.82,1.82,0,0,0-2.53-.38"/></clipPath><clipPath id="clip-path-33"><path class="cls-1" d="M891.17,799.82a1.8,1.8,0,0,0,1.29,2.21c5.85,1.52,11.83,2.87,17.77,4a1.87,1.87,0,0,0,.34,0,1.81,1.81,0,0,0,.33-3.59c-5.86-1.11-11.76-2.43-17.53-3.93a1.76,1.76,0,0,0-.46-.06,1.8,1.8,0,0,0-1.74,1.35"/></clipPath><clipPath id="clip-path-34"><path class="cls-1" d="M710.6,635.8a1.8,1.8,0,0,0-1,2.33c2.17,5.63,4.57,11.26,7.12,16.74a1.79,1.79,0,0,0,1.64,1,1.75,1.75,0,0,0,.76-.17,1.81,1.81,0,0,0,.88-2.4c-2.52-5.4-4.88-11-7-16.51a1.82,1.82,0,0,0-1.69-1.16,1.72,1.72,0,0,0-.66.13"/></clipPath><clipPath id="clip-path-35"><path class="cls-1" d="M768.15,726.87a1.81,1.81,0,0,0,0,2.56c4.22,4.34,8.63,8.58,13.12,12.62a1.81,1.81,0,1,0,2.42-2.69c-4.43-4-8.78-8.17-12.95-12.46a1.82,1.82,0,0,0-2.56,0"/></clipPath><clipPath id="clip-path-36"><path class="cls-1" d="M794.88,751.22a1.82,1.82,0,0,0,.31,2.54c4.76,3.73,9.71,7.35,14.71,10.74a1.74,1.74,0,0,0,1,.32,1.81,1.81,0,0,0,1-3.31c-4.93-3.35-9.81-6.92-14.51-10.6a1.79,1.79,0,0,0-1.11-.39,1.81,1.81,0,0,0-1.43.7"/></clipPath><clipPath id="clip-path-37"><path class="cls-1" d="M857,788.07a1.82,1.82,0,0,0,1,2.37c5.6,2.32,11.34,4.47,17.08,6.39a1.63,1.63,0,0,0,.57.1,1.81,1.81,0,0,0,.58-3.53c-5.66-1.9-11.33-4-16.84-6.31a1.93,1.93,0,0,0-.7-.13,1.81,1.81,0,0,0-1.67,1.11"/></clipPath><clipPath id="clip-path-38"><path class="cls-1" d="M824.66,771.76a1.8,1.8,0,0,0,.64,2.47c5.22,3.06,10.62,6,16,8.66a1.77,1.77,0,0,0,.8.19,1.81,1.81,0,0,0,.81-3.43c-5.35-2.65-10.67-5.53-15.82-8.54a1.76,1.76,0,0,0-.91-.25,1.79,1.79,0,0,0-1.56.9"/></clipPath><clipPath id="clip-path-39"><path class="cls-1" d="M1210.07,628.19a1.8,1.8,0,0,0,1.12,2.3,1.7,1.7,0,0,0,.59.1,1.81,1.81,0,0,0,1.71-1.22c.33-.94.64-1.89,1-2.83l-3.62-.59c-.26.75-.5,1.5-.76,2.24"/></clipPath><clipPath id="clip-path-40"><path class="cls-1" d="M1203.6,645c-2.33,5.5-4.88,11-7.58,16.31a1.8,1.8,0,0,0,.8,2.43,1.7,1.7,0,0,0,.81.2,1.81,1.81,0,0,0,1.62-1c2.73-5.41,5.32-11,7.69-16.53a1.81,1.81,0,0,0-3.34-1.42"/></clipPath><clipPath id="clip-path-41"><path class="cls-1" d="M824.91,440.37c-49.24,3.62-93.78,9.2-131.36,16.26-14.33,2.69-27.65,5.59-39.83,8.68-10.57,2.69-20.29,5.51-29.05,8.46v170.7l.1,0c10.23-3.43,21.75-6.7,34.4-9.77,10.93-2.65,22.72-5.16,35.28-7.5,37.4-7,81.62-12.5,130.46-16.09,40.27-3,83.65-4.69,128.91-4.78,2-.06,4.08-.06,6.12-.06s4.09,0,6.14.06c45.25.09,88.64,1.81,128.9,4.78,39.47,2.91,75.92,7.06,108.19,12.24l3.51.57q8,1.3,15.52,2.69l5.43,1c.21,0,.41.06.63.11,11.53,2.2,22.4,4.53,32.53,7,12.35,3,23.61,6.18,33.64,9.52l.8.27V473.77c-8.75-2.94-18.44-5.76-29-8.44-13.22-3.36-27.79-6.5-43.55-9.38q-8.33-1.53-17.07-2.95l-3.08-.5c-32.12-5.12-68.36-9.25-107.57-12.13-42.08-3.15-87.57-4.84-135-4.84s-93,1.69-135,4.84"/></clipPath><radialGradient id="radial-gradient-41" cx="0.99" cy="1081.01" r="1.44" gradientTransform="matrix(172.35, 0, 0, -172.35, 788.61, 186852.82)" xlink:href="#radial-gradient"/><clipPath id="clip-path-42"><path class="cls-1" d="M997,633.13c-5.13,1-10.13,2.72-15.55,4.27.6,1.86,1.12,4.3,1.39,4.21a90.81,90.81,0,0,1,15-3.9c1.34,3,3.11,7.85,4.52,11.09-5.86.6-12.07,1.1-17.12,1.9-11.75,1.84-24.12,3.41-32.49,12.63-4.56,5-9,6-14.82,5.74-2.34-.11-4.69-.09-7-.06s-4.81.06-7.21-.06-4.94-.38-6.74-1.59c-11.67-7.84-24.94-8-38.19-8.66-4.63-.23-7.61,1-9.1,5-1.1,2.92.16,5.06-1.71,7.63-3.14,4.31-10,8.87-14,12.47L856,686c2.14-1.8,4.26-3.64,6.43-5.4,3.64-3,7.31-8.31,11-8.32,10.29,0,20.58,2.17,31.93,3.62-7.18,11.6-13.64,22-20.1,32.44a32.8,32.8,0,0,0,3.2,1.61c2.37-3.38,5-7.27,6.13-9,4.58-6.75,8.8-13.51,14.45-21.17,5.55,9.69,9.64,21.86,15.3,31.74H875.72c.17,2.21.3,3.89.46,6.06,15.59,0,34.84-.31,50.05-.41,3.32,0,3.28,1.94,5.89,4.44,3,2.89,5.82,4.73,9.88,5,11.63.75,23.35.36,35,.18,1.67,0,4.19-.93,4.82-2.18,6.49-12.82,13.51-27.14,20.3-41.12-8.12,0-16.66.08-23.85.08a6.83,6.83,0,0,1,0-1.21l24.09-.25a5.3,5.3,0,0,0,.69-1.49c-11.24,0-22.87-.13-34.12-.13,0-.57-.11-1.13-.17-1.7,2-.09,3.94-.26,6-.27q3.57,0,7.12,0c8.8,0,17.55.08,26.17-1,5.3-.64,7.24.44,9.17,4.8,5.11,11.57,10.56,23,15.92,34.44a9.16,9.16,0,0,0,1.6,1.8l4.53-2.37c-12.6-27.1-25-54-37.69-80.72a5.71,5.71,0,0,0-4.21-2.46,2.22,2.22,0,0,0-.37,0"/></clipPath><radialGradient id="radial-gradient-42" cx="0.9" cy="1080.18" r="1.44" gradientTransform="matrix(50.98, 0, 0, -50.98, 900.77, 55745.25)" gradientUnits="userSpaceOnUse"><stop offset="0" stop-color="#ff682b"/><stop offset="0.35" stop-color="#ff682b"/><stop offset="1" stop-color="#ff682b"/></radialGradient><clipPath id="clip-path-43"><path class="cls-1" d="M1028.46,685.68a97.77,97.77,0,0,1,4.07,9.1s4.84.8,7.48,1.55c10.76,3.06,17.73,13.95,14.22,24.92a19.78,19.78,0,0,1-25.88,12.16c-10.57-4.15-14.55-16.64-10.07-26.93,1-2.37,3.75-7.19,3.75-7.19s-2.5-5.89-4-9.68c-14.17,11.94-17.69,30.29-7.5,43.92a31.1,31.1,0,0,0,52.31-33.39c-5.53-10.14-16.6-15.56-26.77-15.56a25.69,25.69,0,0,0-7.58,1.1"/></clipPath><radialGradient id="radial-gradient-43" cx="2.03" cy="1078.55" r="1.44" gradientTransform="matrix(21.45, 0, 0, -21.45, 992.05, 23855.07)" xlink:href="#radial-gradient-42"/><clipPath id="clip-path-44"><path class="cls-1" d="M861.41,694a31.57,31.57,0,0,0-3.63,37.43,31.13,31.13,0,0,0,34.45,13.74c12.51-3.39,22.63-15.5,22.9-26.71-3.15,0-7.14.16-7.14.16a55.08,55.08,0,0,1-5.44,7.56c-5.83,6.66-16.94,10.53-25.29,7.31S863.44,721,864.73,712.66c1.45-9.39,9-16.91,18-17.72,3.58-.33,9.52-.7,9.52-.7s2.83-4.44,4.76-7.13a23.56,23.56,0,0,0-12-2.93c-8.25,0-17.54,3.21-23.55,9.81"/></clipPath><radialGradient id="radial-gradient-44" cx="-0.13" cy="1078.55" r="1.44" gradientTransform="matrix(21.5, 0, 0, -21.5, 886.89, 23904.74)" xlink:href="#radial-gradient-42"/><clipPath id="clip-path-45"><path class="cls-1" d="M1026.19,646.8h-.8a9.53,9.53,0,0,0-9.25,9.48c0,5.14,4.5,10.77,9.16,10.4,6.06-.48,5.4-4.71,5.48-8.87.11-10.46-1.31-11-4.08-11h-.51"/></clipPath><radialGradient id="radial-gradient-45" cx="4.04" cy="1075.27" r="1.44" gradientTransform="matrix(6.06, 0, 0, -6.06, 998.98, 7177.28)" xlink:href="#radial-gradient-42"/><clipPath id="clip-path-46"><path class="cls-1" d="M898.75,696.57c3,4.4,9,14.29,9,14.29s2.78,0,7.34-.27a31.84,31.84,0,0,0-4-12.34,27.24,27.24,0,0,0-8-8.4c-3.06,4.89-2.78,4.26-4.32,6.72"/></clipPath><radialGradient id="radial-gradient-46" cx="-1.64" cy="1073.65" r="1.44" gradientTransform="matrix(6.54, 0, 0, -6.54, 917.63, 7720.41)" xlink:href="#radial-gradient-42"/><clipPath id="clip-path-47"><path class="cls-1" d="M915.59,330.18c-1.71.36-3.4.8-5.12,1.14.27,2.54.94,5,1.28,7.52A113.61,113.61,0,0,1,932,332.46a53.75,53.75,0,0,1,17-1.24,57.15,57.15,0,0,1,18.41,5.71,186.91,186.91,0,0,1,20.67,11.82l.47.31c1.65,1,3.34,1.95,4.93,3l-1-.51,3.18,2h0c1.68,0,3.35-.05,5-.06-4.4-2.58-8.89-5-13.22-7.72-5.5-3.32-11.07-6.53-16.75-9.54a85.1,85.1,0,0,0-16.75-6.72,58.83,58.83,0,0,0-14.59-1.92H939a111.07,111.07,0,0,0-23.42,2.51"/></clipPath><radialGradient id="radial-gradient-47" cx="1.1" cy="1083.69" r="1.44" gradientTransform="translate(981.02 25327.12) rotate(180) scale(23.06)" xlink:href="#radial-gradient-42"/><clipPath id="clip-path-48"><path class="cls-1" d="M876.64,339.74c-3.07,1.3-6.06,2.75-9,4.27,2.26.05,4.5.36,6.75.47,1.09.09,2-.62,3-1.06,9.22-4.88,18.72-9.35,28.73-12.35l.26-.25a138.33,138.33,0,0,0-29.68,8.92"/></clipPath><radialGradient id="radial-gradient-48" cx="3.32" cy="1087.24" r="1.44" gradientTransform="translate(920.38 11289.82) rotate(180) scale(10.07)" xlink:href="#radial-gradient-42"/><clipPath id="clip-path-49"><path class="cls-1" d="M880.23,343c-1.27.63-2.58,1.17-3.85,1.81a29.77,29.77,0,0,1,5.42.22c10.73,1,21.39,2.59,32.05,4.15a69.3,69.3,0,0,1-4.37-17.6A158.84,158.84,0,0,0,880.23,343"/></clipPath><radialGradient id="radial-gradient-49" cx="3.05" cy="1087.11" r="1.44" gradientTransform="translate(926.12 11382.09) rotate(180) scale(10.16)" xlink:href="#radial-gradient-42"/><clipPath id="clip-path-50"><path class="cls-1" d="M970.47,346.16a25.2,25.2,0,0,1,2.8,4.13c.27.53.94.52,1.44.68,2.55.55,5.1,1.15,7.69,1.53.28-1.36.65-2.69,1.05-4-3.44-1.83-6.86-3.69-10.29-5.54a24.33,24.33,0,0,0-2.69,3.21"/></clipPath><radialGradient id="radial-gradient-50" cx="-0.06" cy="1096.13" r="1.44" gradientTransform="translate(976.73 4682.19) rotate(180) scale(3.95)" xlink:href="#radial-gradient-42"/><clipPath id="clip-path-51"><path class="cls-1" d="M1001.94,385.17a34.3,34.3,0,0,1,11.16-3.4c0,1.18-.09,2.37-.15,3.55-3.66,0-7.34,0-11-.15m1.49-7.16a26.72,26.72,0,0,1,10.77-2.91c-.23,1.21-.48,2.39-.68,3.59-3.37-.2-6.74-.37-10.09-.68m.73-6.83a9.26,9.26,0,0,1,2.72-1.22,29.49,29.49,0,0,1,9.47-1.71,19.55,19.55,0,0,0-1.42,4c-3.59-.26-7.19-.62-10.77-1M845.6,347c-.82.14-1.16,1-1.68,1.56a174.11,174.11,0,0,0-10.57,15c-1.47-.31-3-.58-4.43-.83-.41,1.95-.77,3.91-1.16,5.86-.22,1.49-.77,3-.55,4.48a106.11,106.11,0,0,0,5.33,18.2l-2.6-.67c-.41-1.33-.7-2.7-1-4.05l-1.14-.42c-.23,1.86-.33,3.73-.39,5.59l-1.51-.13a16.67,16.67,0,0,0,4.26,1.63c6.55,2.14,13.09,4.32,19.67,6.39a26.85,26.85,0,0,1,.36-25.64,26,26,0,0,1,17.88-12.75c9.27-1.71,19.45,1.78,25.35,9.22a25.63,25.63,0,0,1,5.76,17,26.59,26.59,0,0,1-5.6,15.68c8,.07,16,.06,24,0q6,0,12.07,0,15.87,0,31.73,0H979.8c7,0,14,0,21,0s14.09,0,21.14,0a27,27,0,0,1-4.88-16.61,24.35,24.35,0,0,1,4.39-13.6,26.1,26.1,0,0,1,26.76-10.71,27.11,27.11,0,0,1,14.74,8.63,26,26,0,0,1,6.32,17.17,26.5,26.5,0,0,1-5,15.16c4.66-.06,9.31,0,14,0,3.39,0,6.78,0,10.17,0,.18-.73.3-1.48.49-2.22,1.59-1.11,3.49-1.68,5.1-2.8-1.4-1.24-2.79-2.47-4.22-3.67a4.44,4.44,0,0,1,0-1.09c.72-5,1.39-10,2.1-14.93l-.36-.08c-4.62-.84-9.26-1.51-13.9-2.23-.78,0-1.23-.72-1.73-1.21a65.68,65.68,0,0,0-19.73-14.65c-10.61-4.82-22.46-5.94-34-5.87-8.2.15-16.42.41-24.62.46-.58,0-1.15,0-1.72,0a50.08,50.08,0,0,1,1.59,8c9.72,0,19.43.29,29.12.77-.71.77-1.48,1.5-2.25,2.22-1.5-.21-3-.31-4.52-.41-7.38-.51-14.77-1-22.17-1.15.91,9.45-.18,19.25-4.19,27.9-5.65-.29-11.31-.44-17-.88-12.83-1-25.68-2.55-38.08-6.14a45,45,0,0,1-12.47-5.71c-4.58-3.35-7.24-8.7-8.59-14.09-.84-3.16-.87-6.47-1.59-9.65-.36-1.72-1-3.37-1.45-5-13.47-1.92-26.95-3.73-40.52-4.57-3.25-.15-6.51-.24-9.76-.24A132,132,0,0,0,845.6,347"/></clipPath><radialGradient id="radial-gradient-51" cx="1.02" cy="1081.77" r="1.44" gradientTransform="translate(1028.25 73157.83) rotate(180) scale(67.28)" xlink:href="#radial-gradient-42"/><clipPath id="clip-path-52"><path class="cls-1" d="M917.51,359.91c.64,6,2.64,12.13,6.85,16.6,3.73,3.66,8.78,5.5,13.65,7.13,17.79,5.27,36.46,6.4,54.91,7.26a52,52,0,0,0,4-21.76,33.47,33.47,0,0,0-.34-5c-11.58-.4-23.16-.63-34.75-.81,11.55-.46,23.11-.55,34.67-.55a48.14,48.14,0,0,0-1.67-7.89c-22.81.27-45.73.26-68.41-2.58-3.64-.48-7.28-1.07-10.92-1.51a37,37,0,0,1,2,9.12"/></clipPath><radialGradient id="radial-gradient-52" cx="1.09" cy="1083.37" r="1.44" gradientTransform="translate(980.62 24504.78) rotate(180) scale(22.28)" xlink:href="#radial-gradient-42"/><clipPath id="clip-path-53"><path class="cls-1" d="M868.12,407a20.37,20.37,0,0,1-5.89-2.43,28.49,28.49,0,0,1-2.66-1.83,20.05,20.05,0,0,1-7.22-12.4,21,21,0,0,1,3.1-14.79,21.27,21.27,0,0,1,20.83-9.48,21.6,21.6,0,0,1,11.25,5.4,20.52,20.52,0,0,1,6.46,12,21.17,21.17,0,0,1-11.89,22.13l-.37.18a20.71,20.71,0,0,1-8.56,1.83,21.46,21.46,0,0,1-5-.6m-.69-44.55a25.1,25.1,0,0,0-18,16.62A24.22,24.22,0,0,0,857,405.83a28,28,0,0,0,3.37,2.64,22.62,22.62,0,0,0,26.61-.34,24.06,24.06,0,0,0,2.53-2.12h-.22a25.7,25.7,0,0,0,5.66-6.75,25.07,25.07,0,0,0-21.77-37.46,23.45,23.45,0,0,0-5.72.7"/></clipPath><radialGradient id="radial-gradient-53" cx="2.57" cy="1083.73" r="1.44" gradientTransform="translate(918.26 19364.31) rotate(180) scale(17.51)" xlink:href="#radial-gradient-42"/><clipPath id="clip-path-54"><path class="cls-1" d="M1031.05,404.56a20.3,20.3,0,0,1-6.4-7.13,21.17,21.17,0,0,1-1.6-15.74,20.81,20.81,0,0,1,22.38-14.87,21.15,21.15,0,0,1,14.12,8,20.49,20.49,0,0,1,4.1,16.17,21.53,21.53,0,0,1-10.42,14.73,20.72,20.72,0,0,1-10.14,2.69,21.29,21.29,0,0,1-12-3.84m-6.41-33.27a24.31,24.31,0,0,0-6,17.87,25,25,0,0,0,6.5,15.1l0,0,0,0,.17.19.1.1a22.72,22.72,0,0,0,4.45,3.6h-.24a23.5,23.5,0,0,0,15.46,4.33,23,23,0,0,0,10.74-3.86l0,0c1.12-.83,2.23-1.7,3.28-2.64h0a24.47,24.47,0,0,0,4.14-4.66,23.7,23.7,0,0,0,4.24-13.69,25.25,25.25,0,0,0-17.31-23.61,22.12,22.12,0,0,0-7.19-1.18,24.65,24.65,0,0,0-18.47,8.42"/></clipPath><radialGradient id="radial-gradient-54" cx="-0.42" cy="1083.78" r="1.44" gradientTransform="translate(1035.82 18964.6) rotate(180) scale(17.14)" xlink:href="#radial-gradient-42"/><clipPath id="clip-path-55"><path class="cls-1" d="M870.13,369.68a16.46,16.46,0,0,0-7.69,3.74c2.78,2.44,5.32,5.17,8.11,7.63a10.11,10.11,0,0,0,2.53.18c.53,0,1.07,0,1.59,0,1,.19,1.7-.75,2.4-1.34a86.78,86.78,0,0,0,6.57-6.58A16,16,0,0,0,873,369.42a15.56,15.56,0,0,0-2.9.26"/></clipPath><radialGradient id="radial-gradient-55" cx="5.63" cy="1089.62" r="1.44" gradientTransform="translate(906.6 6871.76) rotate(180) scale(5.96)" xlink:href="#radial-gradient-42"/><clipPath id="clip-path-56"><path class="cls-1" d="M1032.54,373.9c2.7,2.62,5.31,5.36,8.18,7.79a36.63,36.63,0,0,0,4.19.21c.81.14,1.27-.65,1.81-1.1,2.21-2.26,4.65-4.29,6.75-6.66a12.12,12.12,0,0,0-5.1-3.07,15.88,15.88,0,0,0-5.33-.91,16.45,16.45,0,0,0-10.5,3.74"/></clipPath><radialGradient id="radial-gradient-56" cx="-3.14" cy="1089.69" r="1.44" gradientTransform="translate(1024.5 6794.59) rotate(180) scale(5.89)" xlink:href="#radial-gradient-42"/><clipPath id="clip-path-57"><path class="cls-1" d="M855.75,388.88a17.22,17.22,0,0,0,3.47,8.44c1.81-1.45,3.37-3.2,5.07-4.78a22.54,22.54,0,0,0,3.12-3.43c.22-1.57,0-3.18.11-4.76-2.18-2.4-4.61-4.55-6.88-6.86a8.19,8.19,0,0,0-1.37-1.2,17.26,17.26,0,0,0-3.52,12.59"/></clipPath><radialGradient id="radial-gradient-57" cx="6.25" cy="1089.07" r="1.44" gradientTransform="translate(898.61 6843.8) rotate(180) scale(5.93)" xlink:href="#radial-gradient-42"/><clipPath id="clip-path-58"><path class="cls-1" d="M879.65,383.37c-.4.46-1.08.88-1,1.58,0,1.32,0,2.64-.06,4,0,.35.33.57.51.83,2.39,2.7,5.11,5.07,7.51,7.76,5.23-5.74,5.27-15.27.3-21.19-2.6,2.15-4.82,4.73-7.26,7.06"/></clipPath><radialGradient id="radial-gradient-58" cx="5.03" cy="1089.01" r="1.44" gradientTransform="translate(914.64 6893.38) rotate(180) scale(5.97)" xlink:href="#radial-gradient-42"/><clipPath id="clip-path-59"><path class="cls-1" d="M1026.09,391.24a19.81,19.81,0,0,0,3.2,6.85c2.48-2.21,4.78-4.62,7.09-7,.49-.56,1.18-1.1,1.15-1.92a41.6,41.6,0,0,0,0-4.18c-2.57-2.81-5.26-5.53-8.07-8.11a17.25,17.25,0,0,0-3.33,14.36"/></clipPath><radialGradient id="radial-gradient-59" cx="-2.51" cy="1088.99" r="1.44" gradientTransform="translate(1016.68 6884.83) rotate(180) scale(5.97)" xlink:href="#radial-gradient-42"/><clipPath id="clip-path-60"><path class="cls-1" d="M1048.48,385c0,1.59-.09,3.18,0,4.76,2.32,3.12,5.46,5.52,8,8.49a16.61,16.61,0,0,0,.17-21.26c-2.75,2.63-5.36,5.39-8.12,8"/></clipPath><radialGradient id="radial-gradient-60" cx="-3.66" cy="1088.96" r="1.44" gradientTransform="translate(1032.5 6899.87) rotate(180) scale(5.98)" xlink:href="#radial-gradient-42"/><clipPath id="clip-path-61"><path class="cls-1" d="M874.27,392.43h-.49c-.41,0-.83,0-1.25,0a10.59,10.59,0,0,0-2,.1c-1.49,1.14-2.76,2.55-4.13,3.83s-2.69,2.58-3.94,4a18,18,0,0,0,13.46,3.48,13.78,13.78,0,0,0,7.55-3.46c-2.27-2.69-5-4.94-7.49-7.44a1.57,1.57,0,0,0-1.33-.49h-.35"/></clipPath><radialGradient id="radial-gradient-61" cx="5.69" cy="1088.54" r="1.44" gradientTransform="translate(906.46 6807.47) rotate(180) scale(5.89)" xlink:href="#radial-gradient-42"/><clipPath id="clip-path-62"><path class="cls-1" d="M1039,394.57c-2.15,2.21-4.56,4.17-6.53,6.55a17.66,17.66,0,0,0,9.47,3.66,15.53,15.53,0,0,0,11.44-3.65c-1.62-1.91-3.51-3.57-5.27-5.35a19.91,19.91,0,0,0-2.91-2.61c-.51,0-1,0-1.54,0-.78,0-1.56,0-2.34,0h-.18c-.91,0-1.51.87-2.14,1.42"/></clipPath><radialGradient id="radial-gradient-62" cx="-3.15" cy="1088.51" r="1.44" gradientTransform="translate(1024.43 6797.14) rotate(180) scale(5.88)" xlink:href="#radial-gradient-42"/></defs><g class="cls-2"><rect class="cls-3" x="653.72" y="222.48" width="612.54" height="242.85"/></g><g class="cls-4"><rect class="cls-3" x="659.17" y="626.57" width="601.62" height="230.95"/></g><g class="cls-5"><rect class="cls-6" x="709.05" y="424.45" width="11.17" height="20.3"/></g><g class="cls-7"><rect class="cls-6" x="1067.26" y="292.93" width="20.35" height="11.66"/></g><g class="cls-8"><rect class="cls-6" x="1099.1" y="310.1" width="19.09" height="13.78"/></g><g class="cls-9"><rect class="cls-6" x="1033.39" y="280.27" width="21.24" height="9.37"/></g><g class="cls-10"><rect class="cls-6" x="998.19" y="272.39" width="21.7" height="6.95"/></g><g class="cls-11"><rect class="cls-6" x="1128.36" y="331.41" width="17.49" height="15.7"/></g><g class="cls-12"><rect class="cls-6" x="1195.4" y="415.76" width="11.77" height="19.99"/></g><g class="cls-13"><rect class="cls-6" x="1154.46" y="356.44" width="15.77" height="17.39"/></g><g class="cls-14"><rect class="cls-6" x="1176.91" y="384.73" width="13.9" height="18.83"/></g><g class="cls-15"><rect class="cls-6" x="856.21" y="283.21" width="20.99" height="9.98"/></g><g class="cls-16"><rect class="cls-6" x="794.04" y="315.35" width="18.69" height="14.3"/></g><g class="cls-17"><rect class="cls-6" x="823.87" y="297.07" width="20.02" height="12.23"/></g><g class="cls-18"><rect class="cls-6" x="767.22" y="337.68" width="17.03" height="16.17"/></g><g class="cls-19"><rect class="cls-6" x="743.78" y="363.63" width="15.31" height="17.81"/></g><g class="cls-20"><rect class="cls-6" x="926.09" y="269.72" width="21.79" height="5.16"/></g><g class="cls-21"><rect class="cls-6" x="962.28" y="269.39" width="21.77" height="4.51"/></g><g class="cls-22"><rect class="cls-23" x="890.49" y="274.04" width="21.61" height="7.61"/></g><g class="cls-24"><rect class="cls-6" x="724.26" y="392.72" width="13.36" height="19.19"/></g><g class="cls-25"><rect class="cls-6" x="1210.18" y="448.99" width="3.18" height="1.25"/></g><g class="cls-26"><rect class="cls-6" x="1067.59" y="775.25" width="20.31" height="11.66"/></g><g class="cls-27"><rect class="cls-6" x="1033.8" y="790.22" width="21.21" height="9.39"/></g><g class="cls-28"><rect class="cls-6" x="962.72" y="806.06" width="21.77" height="4.54"/></g><g class="cls-29"><rect class="cls-6" x="998.62" y="800.56" width="21.69" height="6.98"/></g><g class="cls-30"><rect class="cls-6" x="926.52" y="805.17" width="21.79" height="5.14"/></g><g class="cls-31"><rect class="cls-6" x="1177.09" y="676.15" width="13.89" height="18.86"/></g><g class="cls-32"><rect class="cls-6" x="1154.65" y="705.94" width="15.76" height="17.41"/></g><g class="cls-33"><rect class="cls-6" x="1099.36" y="755.95" width="19.06" height="13.79"/></g><g class="cls-34"><rect class="cls-6" x="1128.58" y="732.7" width="17.47" height="15.71"/></g><g class="cls-35"><rect class="cls-6" x="724.43" y="668.4" width="13.37" height="19.15"/></g><g class="cls-36"><rect class="cls-6" x="743.96" y="698.82" width="15.31" height="17.78"/></g><g class="cls-37"><rect class="cls-6" x="890.91" y="798.47" width="21.61" height="7.58"/></g><g class="cls-38"><rect class="cls-6" x="709.21" y="635.67" width="11.18" height="20.24"/></g><g class="cls-39"><rect class="cls-6" x="767.42" y="726.36" width="17.04" height="16.15"/></g><g class="cls-40"><rect class="cls-6" x="794.27" y="750.52" width="18.71" height="14.29"/></g><g class="cls-41"><rect class="cls-6" x="856.57" y="786.96" width="21.05" height="9.97"/></g><g class="cls-42"><rect class="cls-6" x="824.15" y="770.86" width="20.06" height="12.22"/></g><g class="cls-43"><rect class="cls-6" x="1209.74" y="625.95" width="4.7" height="4.64"/></g><g class="cls-44"><rect class="cls-6" x="1195.57" y="643.87" width="11.76" height="20.04"/></g><path class="cls-45" d="M1295.49,644.58l-.26-.4v.29l-.8-.27c-10-3.34-21.29-6.52-33.64-9.52a317.18,317.18,0,0,1-28.58,65.22h0a317.89,317.89,0,0,0,63.25-55.3"/><path class="cls-45" d="M687.78,698.91C653.45,677,629,649.86,625,645.36l-.25-.28-.24-.28q3.75-1.31,7.71-2.59c8.16-2.62,17-5.15,26.57-7.59,1.29,4,2.66,8,4.1,11.91a316,316,0,0,0,24.89,52.38"/><g class="cls-46"><rect class="cls-47" x="624.67" y="435.53" width="670.56" height="208.93"/></g><path class="cls-48" d="M724.12,489.71c1.71-.27,2.76.44,3,2l14.34,92.38a2.23,2.23,0,0,1-2.08,2.82q-5.68.89-11.38,1.83a2.23,2.23,0,0,1-2.86-2q-4.56-27.3-9.13-54.59l-.89.15q-1.7,28.47-2.92,56.92a2.58,2.58,0,0,1-2.31,2.65l-6,1.09a2.58,2.58,0,0,1-3.09-1.68q-11.12-26.22-22.7-52.28l-.89.17,10.59,54.33a2.22,2.22,0,0,1-2,2.89q-5.61,1.11-11.21,2.25a2.22,2.22,0,0,1-2.93-1.9l-19-91.54c-.32-1.57.41-2.6,2.11-2.95q8.6-1.77,17.21-3.43a2.71,2.71,0,0,1,3.28,1.62q13,28.71,25.39,57.59,1.5-31.39,3.59-62.83a2.7,2.7,0,0,1,2.5-2.67q8.64-1.45,17.29-2.82"/><path class="cls-48" d="M748.92,503.92c-1.64-11.44,4.06-18.5,16.44-20.1,4.9-.63,9.82-1.24,14.73-1.82,12.39-1.46,19.62,4,20.82,15.48q3.33,31.32,6.64,62.63c1.2,11.51-4.31,18.24-15.86,19.61q-6.88.81-13.77,1.7c-11.53,1.49-18.53-3.69-20.17-15.15q-4.41-31.17-8.83-62.35m37.79,60.41c3.23-.39,4.79-2.18,4.4-5.48q-3.32-28.22-6.62-56.44c-.37-3.17-2.4-4.67-5.79-4.26-2.51.3-5,.61-7.54.93-3.39.43-5,2.37-4.58,5.54L773.9,561c.43,3.29,2.37,4.65,5.6,4.24l7.21-.89"/><path class="cls-48" d="M862.91,474.48c1.45-.1,2.16.6,2.23,1.83q.39,6.13.76,12.27c.08,1.23-.53,2-2,2.1q-7.57.48-15.15,1,2.93,40,5.86,80c.1,1.35-.47,2-1.83,2.11q-6.42.48-12.83,1a1.76,1.76,0,0,1-2.14-1.79q-3.4-40-6.82-79.91-7.56.64-15.13,1.37a1.88,1.88,0,0,1-2.28-1.76q-.6-6.12-1.19-12.24a1.88,1.88,0,0,1,1.92-2.16q24.25-2.32,48.57-3.85"/><path class="cls-48" d="M880.48,491.21c-.62-11.54,5.67-18.06,18.12-18.56q7.41-.3,14.81-.51c12.45-.36,19.17,5.72,19.34,17.27q.53,31.48,1.06,63C934,564,927.9,570.17,916.3,570.5q-6.91.21-13.84.48c-11.6.46-18.09-5.33-18.71-16.88l-3.27-62.89m32.23,63.53c3.25-.11,4.95-1.75,4.86-5.07L916,492.86c-.09-3.19-2-4.87-5.38-4.76l-7.59.26c-3.4.13-5.16,1.92-5,5.12l2.28,56.78c.14,3.32,2,4.84,5.2,4.72l7.25-.24"/><path class="cls-48" d="M1005.12,520c-.27,8.24-3.63,13.54-9.77,16q3.95,16.23,7.7,32.47c.32,1.48-.44,2.2-1.8,2.15q-6.43-.19-12.86-.33a1.94,1.94,0,0,1-2.06-1.77q-3.84-15.71-7.85-31.38-4.37-.08-8.73-.1-.13,15.49-.26,31a1.83,1.83,0,0,1-2,2q-6.43,0-12.86,0a1.82,1.82,0,0,1-2-2q-.17-47.23-.34-94.46a1.89,1.89,0,0,1,2.11-2q16.61,0,33.21.3c12.45.25,18.86,6.65,18.46,18.2q-.48,15-1,30m-22.57.92c3.33.06,5.16-1.62,5.22-4.82l.48-23.12c.07-3.2-1.73-5-5.13-5q-6.48-.1-13-.16-.13,16.47-.28,33,6.35.06,12.67.16"/><path class="cls-48" d="M1114.71,520.26c-.49,4.53-4.3,7.58-9,7.85l0,.24c4.52,1.2,7.59,5,7.09,9.53q-1.2,11.25-2.42,22.5c-1.26,11.5-8.19,16.9-19.76,15.8q-7.14-.67-14.3-1.28c-11.2-.94-16.82-7.36-16-18.53.1-1.35.2-2.7.29-4a2.23,2.23,0,0,1,2.69-2.27q6,.45,12,.94a2.23,2.23,0,0,1,2.31,2.66c-.15,1.67-.29,3.35-.43,5q7,.59,14,1.24a2.24,2.24,0,0,0,2.73-2.21q.82-8.7,1.67-17.39c.3-3.18-1.18-5.06-4.61-5.37q-7.49-.69-15-1.31a2.25,2.25,0,0,1-2.35-2.65l.91-11.29a2.25,2.25,0,0,1,2.76-2.24q7.57.62,15.14,1.32c3.34.31,5.3-1.23,5.59-4.29l1.68-17.51c.15-1.59-.68-2.54-2.37-2.7q-7.3-.69-14.62-1.3l-.42,5c-.13,1.6-1.11,2.38-2.8,2.24q-6.24-.51-12.47-1a2.28,2.28,0,0,1-2.43-2.64l.37-5c.74-10.55,7.62-15.76,19.64-14.75q7.67.65,15.3,1.38c12.41,1.18,18.47,8,17.21,19.54q-1.2,11.25-2.42,22.5"/><path class="cls-48" d="M1167.52,524.56c11.66,1.69,17,8.66,15.24,19.71q-2,12.83-4,25.64c-1.75,11.06-8.69,16-19.84,14.43q-7.35-1.07-14.73-2.05C1133,580.81,1127.7,574.12,1129,563q1.89-15.69,3.8-31.38a14.66,14.66,0,0,1,2-6q11.6-19.53,23.68-38.88a3,3,0,0,1,3.27-1.42q6.84.94,13.66,1.94c2,.28,2.59,1.5,1.55,3.08q-10.49,16.25-20.61,32.61c3.71.5,7.42,1,11.13,1.56m-10.28,43.14c3.23.46,5.21-1,5.67-4.16q1.3-8.94,2.6-17.89c.46-3.17-1.06-5.13-4.36-5.6l-7.09-1c-3.29-.45-5.29,1-5.71,4.19q-1.18,9-2.38,17.93c-.42,3.17,1.09,5.1,4.32,5.54l7,1"/><path class="cls-48" d="M1208,510.39c1.93-11.39,9.51-16.38,21.81-14.13q7.32,1.35,14.63,2.76c12.28,2.39,17.53,9.8,15.17,21.11q-6.37,30.84-12.77,61.67c-2.36,11.33-9.69,16.05-21.13,13.83q-6.84-1.32-13.67-2.58c-11.46-2.1-16.55-9.17-14.62-20.58q5.29-31,10.58-62.08m17.64,69.07c3.21.61,5.24-.62,5.88-3.88l10.89-55.77c.61-3.14-.86-5.19-4.22-5.83l-7.5-1.42c-3.36-.62-5.48.74-6,3.89q-5.1,27.94-10.21,55.9c-.6,3.27.85,5.16,4.06,5.75l7.15,1.36"/><g class="cls-49"><rect class="cls-50" x="854.04" y="633.1" width="185.26" height="94.3"/></g><g class="cls-51"><rect class="cls-52" x="1000.31" y="684.58" width="70.35" height="65.58"/></g><g class="cls-53"><rect class="cls-54" x="850.55" y="684.18" width="64.58" height="64.54"/></g><g class="cls-55"><rect class="cls-56" x="1016.13" y="646.74" width="15.22" height="20.31"/></g><g class="cls-57"><rect class="cls-58" x="898.75" y="689.85" width="16.38" height="21.01"/></g><g class="cls-59"><rect class="cls-60" x="910.47" y="327.67" width="90.3" height="25.96"/></g><g class="cls-61"><rect class="cls-62" x="867.61" y="330.82" width="38.71" height="13.74"/></g><g class="cls-63"><rect class="cls-64" x="876.38" y="331.6" width="37.47" height="17.59"/></g><g class="cls-65"><rect class="cls-66" x="970.47" y="342.95" width="12.98" height="9.56"/></g><g class="cls-67"><rect class="cls-68" x="825.89" y="345.79" width="268.13" height="57.33"/></g><g class="cls-69"><rect class="cls-70" x="915.46" y="350.79" width="81.59" height="40.11"/></g><g class="cls-71"><rect class="cls-72" x="846.92" y="361.79" width="52.03" height="51.31"/></g><g class="cls-73"><rect class="cls-74" x="1018.16" y="362.87" width="49.52" height="50.26"/></g><g class="cls-75"><rect class="cls-76" x="862.44" y="369.42" width="21.2" height="12.03"/></g><g class="cls-77"><rect class="cls-78" x="1032.54" y="370.16" width="20.93" height="11.87"/></g><g class="cls-79"><rect class="cls-80" x="855.21" y="376.29" width="12.41" height="21.04"/></g><g class="cls-81"><rect class="cls-82" x="878.57" y="376.31" width="13.31" height="21.19"/></g><g class="cls-83"><rect class="cls-84" x="1024.95" y="376.88" width="12.69" height="21.21"/></g><g class="cls-85"><rect class="cls-86" x="1048.39" y="376.97" width="13.3" height="21.26"/></g><g class="cls-87"><rect class="cls-88" x="862.43" y="392.42" width="21.01" height="12.17"/></g><g class="cls-89"><rect class="cls-90" x="1032.47" y="393.15" width="20.91" height="11.93"/></g></svg>